<?xml version="1.0" encoding="UTF-8"?>
<svg width="24px" height="22px" viewBox="0 0 24 22" version="1.1" xmlns="http://www.w3.org/2000/svg" xmlns:xlink="http://www.w3.org/1999/xlink">
    <!-- Generator: Sketch 50.2 (55047) - http://www.bohemiancoding.com/sketch -->
    <title>Shape</title>
    <desc>Created with Sketch.</desc>
    <defs></defs>
    <g id="Welcome" stroke="none" stroke-width="1" fill="none" fill-rule="evenodd">
        <g id="Desktop-HD" transform="translate(-622.000000, -220.000000)" fill="#FFFFFF" fill-rule="nonzero">
            <g id="cars" transform="translate(608.000000, 205.000000)">
                <path d="M35.2266667,16.38875 C34.9533333,15.5775 34.2066667,15 33.3333333,15 L18.6666667,15 C17.7933333,15 17.0466667,15.5775 16.7733333,16.38875 L14,24.625 L14,35.625 C14,36.38125 14.6,37 15.3333333,37 L16.6666667,37 C17.4066667,37 18,36.38125 18,35.625 L18,34.25 L34,34.25 L34,35.625 C34,36.38125 34.6,37 35.3333333,37 L36.6666667,37 C37.4066667,37 38,36.38125 38,35.625 L38,24.625 L35.2266667,16.38875 Z M18.7142857,30.84 C17.5285714,30.84 16.5714286,29.8573333 16.5714286,28.64 C16.5714286,27.4226667 17.5285714,26.44 18.7142857,26.44 C19.9,26.44 20.8571429,27.4226667 20.8571429,28.64 C20.8571429,29.8573333 19.9,30.84 18.7142857,30.84 Z M33.2857143,30.84 C32.1,30.84 31.1428571,29.8573333 31.1428571,28.64 C31.1428571,27.4226667 32.1,26.44 33.2857143,26.44 C34.4714286,26.44 35.4285714,27.4226667 35.4285714,28.64 C35.4285714,29.8573333 34.4714286,30.84 33.2857143,30.84 Z M16.5714286,22.92 L18.5918367,16.76 L33.4081633,16.76 L35.4285714,22.92 L16.5714286,22.92 Z" id="Shape"></path>
            </g>
        </g>
    </g>
</svg>