<?xml version="1.0" encoding="UTF-8"?>
<svg width="23px" height="23px" viewBox="0 0 23 23" version="1.1" xmlns="http://www.w3.org/2000/svg" xmlns:xlink="http://www.w3.org/1999/xlink">
    <!-- Generator: Sketch 50.2 (55047) - http://www.bohemiancoding.com/sketch -->
    <title>Shape</title>
    <desc>Created with Sketch.</desc>
    <defs></defs>
    <g id="Welcome" stroke="none" stroke-width="1" fill="none" fill-rule="evenodd">
        <g id="Desktop-HD" transform="translate(-1109.000000, -141.000000)" fill="#FFFFFF" fill-rule="nonzero">
            <g id="cart" transform="translate(1094.000000, 127.000000)">
                <g id="icon-with-bckg" transform="translate(15.000000, 1.000000)">
                    <g id="Icon_car">
                        <g id="icon_cart">
                            <path d="M6.77094522,31.5521236 C5.52396281,31.5521236 4.52524839,32.5473359 4.52524839,33.7760618 C4.52524839,35.0047876 5.52396281,36 6.77094522,36 C8.01792763,36 9.02792696,35.0047876 9.02792696,33.7760618 C9.02792696,32.5473359 8.01792763,31.5521236 6.77094522,31.5521236 Z M0,13.7606178 L0,15.984556 L2.25698174,15.984556 L6.31390642,24.4188417 L4.79044374,27.143166 C4.61552766,27.4656371 4.51396348,27.827027 4.51396348,28.2162162 C4.51396348,29.4449421 5.52396281,30.4401544 6.77094522,30.4401544 L20.3128357,30.4401544 L20.3128357,28.2162162 L7.25055384,28.2162162 C7.09256512,28.2162162 6.96843112,28.0938996 6.96843112,27.9382239 C6.96843112,27.8881853 6.97971603,27.8437066 7.00228585,27.8047876 L8.01228518,25.992278 L16.4195422,25.992278 C17.2659103,25.992278 18.0050718,25.5308108 18.3944012,24.8469498 L22.428756,17.6302703 C22.5190353,17.4745946 22.5698174,17.2911197 22.5698174,17.0965251 C22.5698174,16.4793822 22.0619965,15.984556 21.4413265,15.984556 L4.75658902,15.984556 L3.68452269,13.7606178 L0,13.7606178 Z M18.0558539,31.5521236 C16.8088715,31.5521236 15.8101571,32.5473359 15.8101571,33.7760618 C15.8101571,35.0047876 16.8088715,36 18.0558539,36 C19.3028363,36 20.3128357,35.0047876 20.3128357,33.7760618 C20.3128357,32.5473359 19.3028363,31.5521236 18.0558539,31.5521236 Z" id="Shape"></path>
                        </g>
                    </g>
                </g>
            </g>
        </g>
    </g>
</svg>