<?xml version="1.0" encoding="UTF-8"?>
<svg width="18px" height="29px" viewBox="0 0 18 29" version="1.1" xmlns="http://www.w3.org/2000/svg" xmlns:xlink="http://www.w3.org/1999/xlink">
    <!-- Generator: Sketch 50.2 (55047) - http://www.bohemiancoding.com/sketch -->
    <title>Shape</title>
    <desc>Created with Sketch.</desc>
    <defs></defs>
    <g id="Welcome" stroke="none" stroke-width="1" fill="none" fill-rule="evenodd">
        <g id="Desktop-HD" transform="translate(-1109.000000, -209.000000)" fill="#FFFFFF" fill-rule="nonzero">
            <g id="curs" transform="translate(1094.000000, 198.000000)">
                <g id="money" transform="translate(15.000000, 11.000000)">
                    <path d="M9.69366716,12.7277778 C5.68188513,11.7772222 4.39175258,10.8025 4.39175258,9.27194444 C4.39175258,7.51583333 6.16789396,6.28333333 9.1634757,6.28333333 C12.3092784,6.28333333 13.4756996,7.65277778 13.5817378,9.66666667 L17.4874816,9.66666667 C17.3726068,6.8875 15.5081001,4.35805556 11.814433,3.52833333 L11.814433,0 L6.51251841,0 L6.51251841,3.48 C3.08394698,4.16472222 0.326951399,6.17861111 0.326951399,9.29611111 C0.326951399,13.0177778 3.71134021,14.8705556 8.63328424,15.95 C13.0603829,16.9166667 13.9351988,18.3263889 13.9351988,19.8408333 C13.9351988,20.9444444 13.078056,22.7166667 9.1634757,22.7166667 C5.52282769,22.7166667 4.08247423,21.2263889 3.89690722,19.3333333 L0,19.3333333 C0.220913108,22.8616667 3.11045655,24.8352778 6.51251841,25.5038889 L6.51251841,29 L11.814433,29 L11.814433,25.5361111 C15.2518409,24.9319444 18,23.1194444 18,19.8086111 C18,15.2491667 13.7054492,13.6863889 9.69366716,12.7277778 Z" id="Shape"></path>
                </g>
            </g>
        </g>
    </g>
</svg>