<svg xmlns="http://www.w3.org/2000/svg" xmlns:xlink="http://www.w3.org/1999/xlink" width="582" height="582" viewBox="0 0 582 582" style="-webkit-transform:rotate(24deg);-ms-transform:rotate(24deg);transform:rotate(24deg)"><defs><path id="4s6qa" d="M-57.58 106.548l60.562-8.656a23.874 23.874 0 0 0 19.38-16.425c2.484-7.828 5.748-15.697 9.694-23.386a23.851 23.851 0 0 0-2.122-25.221L-6.729-16.108 31.46-54.3 80.43-17.636c7.327 5.468 17.12 6.29 25.221 2.122 7.7-3.946 15.57-7.21 23.386-9.693a23.837 23.837 0 0 0 16.425-19.381l8.656-60.562h54.092l8.656 60.562a23.874 23.874 0 0 0 16.426 19.38c7.828 2.484 15.697 5.748 23.385 9.694 8.102 4.18 17.906 3.358 25.221-2.122l48.969-36.663 38.185 38.19-36.658 48.969a23.898 23.898 0 0 0-2.122 25.221c3.946 7.7 7.21 15.57 9.688 23.386a23.852 23.852 0 0 0 19.387 16.425l60.573 8.656v54.092l-60.562 8.656a23.874 23.874 0 0 0-19.38 16.426c-2.484 7.828-5.748 15.697-9.694 23.385a23.851 23.851 0 0 0 2.122 25.221l36.663 48.969-38.19 38.185-48.969-36.658c-7.315-5.468-17.12-6.301-25.221-2.122-7.7 3.946-15.57 7.21-23.386 9.688a23.852 23.852 0 0 0-16.425 19.387l-8.656 60.573H154.13l-8.656-60.562a23.874 23.874 0 0 0-16.426-19.38c-7.828-2.484-15.697-5.748-23.385-9.694-8.102-4.18-17.895-3.358-25.221 2.122l-48.969 36.663-38.185-38.19 36.658-48.969a23.898 23.898 0 0 0 2.122-25.221c-3.946-7.7-7.21-15.57-9.688-23.386a23.852 23.852 0 0 0-19.387-16.425l-60.573-8.656zm-27.256 98.438l66.886 9.548c.362.886.717 1.754 1.09 2.629l-40.493 54.085c-7.117 9.507-6.172 22.803 2.233 31.197l67.445 67.445c8.394 8.394 21.666 9.338 31.197 2.233l54.086-40.493c.874.373 1.742.74 2.628 1.09l9.548 66.886c1.685 11.757 11.757 20.494 23.636 20.494h95.5c11.88 0 21.951-8.737 23.636-20.494l9.548-66.886c.886-.362 1.754-.717 2.629-1.09l54.085 40.493c9.507 7.128 22.803 6.184 31.197-2.233l67.445-67.445c8.405-8.394 9.35-21.678 2.233-31.197L379.2 217.163c.373-.875.74-1.743 1.09-2.63l66.886-9.547c11.757-1.685 20.494-11.757 20.494-23.636v-95.5c0-11.88-8.737-21.951-20.494-23.636l-66.886-9.548c-.362-.886-.717-1.754-1.09-2.629l40.493-54.085c7.117-9.507 6.172-22.803-2.233-31.197l-67.445-67.445c-8.406-8.405-21.69-9.361-31.197-2.233L264.733-64.43c-.875-.373-1.743-.74-2.63-1.09l-9.547-66.886c-1.685-11.757-11.757-20.494-23.636-20.494h-95.5c-11.88 0-21.951 8.737-23.636 20.494l-9.548 66.886c-.886.362-1.754.717-2.628 1.09l-54.086-40.493c-9.507-7.117-22.791-6.16-31.197 2.233L-55.12-35.245c-8.405 8.394-9.35 21.678-2.233 31.197l40.493 54.085c-.373.875-.74 1.743-1.09 2.63l-66.886 9.547c-11.757 1.685-20.494 11.757-20.494 23.636v95.5c0 11.88 8.737 21.951 20.494 23.636z"/><path id="4s6qb" d="M181.175 61.97c39.502 0 71.625 32.123 71.625 71.625s-32.123 71.625-71.625 71.625-71.625-32.123-71.625-71.625 32.123-71.625 71.625-71.625zm0 191c65.825 0 119.375-53.55 119.375-119.375S247 14.22 181.175 14.22 61.8 67.77 61.8 133.595 115.35 252.97 181.175 252.97z"/></defs><g><g transform="translate(110 157)"><use fill="#ededed" xlink:href="#4s6qa"/></g><g transform="translate(110 157)"><use fill="#ededed" xlink:href="#4s6qb"/></g></g></svg>