<?xml version="1.0" encoding="UTF-8"?>
<svg width="25px" height="20px" viewBox="0 0 25 20" version="1.1" xmlns="http://www.w3.org/2000/svg" xmlns:xlink="http://www.w3.org/1999/xlink">
    <!-- Generator: Sketch 50.2 (55047) - http://www.bohemiancoding.com/sketch -->
    <title>list</title>
    <desc>Created with Sketch.</desc>
    <defs></defs>
    <g id="Welcome" stroke="none" stroke-width="1" fill="none" fill-rule="evenodd">
        <g id="Desktop-HD" transform="translate(-492.000000, -219.000000)" fill="#FFFFFF" fill-rule="nonzero">
            <g id="cars" transform="translate(479.000000, 205.000000)">
                <g id="list" transform="translate(13.000000, 14.000000)">
                    <path d="M2.02702703,8 C0.905405405,8 0,8.89333333 0,10 C0,11.1066667 0.905405405,12 2.02702703,12 C3.14864865,12 4.05405405,11.1066667 4.05405405,10 C4.05405405,8.89333333 3.14864865,8 2.02702703,8 Z M2.02702703,0 C0.905405405,0 0,0.893333333 0,2 C0,3.10666667 0.905405405,4 2.02702703,4 C3.14864865,4 4.05405405,3.10666667 4.05405405,2 C4.05405405,0.893333333 3.14864865,0 2.02702703,0 Z M2.02702703,16 C0.898648649,16 0,16.9 0,18 C0,19.1 0.912162162,20 2.02702703,20 C3.14189189,20 4.05405405,19.1 4.05405405,18 C4.05405405,16.9 3.15540541,16 2.02702703,16 Z M6.08108108,19.3333333 L25,19.3333333 L25,16.6666667 L6.08108108,16.6666667 L6.08108108,19.3333333 Z M6.08108108,11.3333333 L25,11.3333333 L25,8.66666667 L6.08108108,8.66666667 L6.08108108,11.3333333 Z M6.08108108,0.666666667 L6.08108108,3.33333333 L25,3.33333333 L25,0.666666667 L6.08108108,0.666666667 Z" id="Shape"></path>
                </g>
            </g>
        </g>
    </g>
</svg>