<?xml version="1.0" encoding="utf-8"?>
<!-- Generator: Adobe Illustrator 19.2.1, SVG Export Plug-In . SVG Version: 6.00 Build 0)  -->
<svg version="1.1" id="Слой_1" xmlns="http://www.w3.org/2000/svg" xmlns:xlink="http://www.w3.org/1999/xlink" x="0px" y="0px"
	 viewBox="0 0 266 52" style="enable-background:new 0 0 266 52;" xml:space="preserve">
<style type="text/css">
	.st0{fill:#ED0C0D;}
	.st1{fill:#B6B6B6;}
	.st2{fill:#242424;}
</style>
<path class="st0" d="M26,0.3C11.8,0.3,0.3,11.9,0.3,26.1c0,14.2,11.5,25.7,25.8,25.7s25.8-11.5,25.8-25.7C51.8,11.9,40.2,0.3,26,0.3
	z M2,18.7h13.3l0.6,1.9L2,18.7z M16.5,22.5l0.6,1.9l-9.9-1.9H16.5z M12.7,26h5l0.6,1.8L12.7,26z M21.1,38.8c-1.4,0-2.5-1.1-2.5-2.5
	c0-1.4,1.1-2.5,2.5-2.5c1.4,0,2.5,1.1,2.5,2.5C23.6,37.7,22.5,38.8,21.1,38.8z M32.5,38.8c-1.4,0-2.5-1.1-2.5-2.5
	c0-1.4,1.1-2.5,2.5-2.5c1.4,0,2.5,1.1,2.5,2.5C34.9,37.7,33.8,38.8,32.5,38.8z M35,27.8H22.1l-1.6,3h13.8v2h-15v-2.2l1-2.8h0
	l-0.1-0.5l0-0.2l-3.6-10.7l-2.4-0.6l0.4-1.5l3.3,1l0.8,2.5h19.7L35,27.8z"/>
<g>
	<g>
		<path class="st0" d="M63.2,26L67,11.8C68,7.9,71.3,6,76.8,6h8c0.4,0,0.7,0.1,0.9,0.4c0.2,0.3,0.4,0.6,0.4,1V26
			c0,0.4-0.1,0.7-0.4,1c-0.3,0.3-0.6,0.4-1,0.4h-2.8c-0.4,0-0.7-0.1-1-0.4c-0.3-0.3-0.4-0.6-0.4-1v-3.8H70l-1,3.8
			c-0.1,0.4-0.3,0.7-0.7,1c-0.3,0.3-0.7,0.4-1.1,0.4h-2.9c-0.4,0-0.7-0.1-0.9-0.4C63.2,26.7,63.1,26.4,63.2,26z M72.4,13.2L71,18
			h9.5v-7.8h-4.2c-1,0-1.8,0.3-2.5,0.8C73.1,11.6,72.6,12.3,72.4,13.2z"/>
		<path class="st0" d="M100.6,27.4H91c-0.3,0-0.5-0.1-0.7-0.3c-0.2-0.2-0.3-0.4-0.3-0.7V12c0-0.3,0.1-0.5,0.3-0.7
			c0.2-0.2,0.4-0.3,0.7-0.3h8.9c1.9,0,3.4,0.4,4.6,1.1c1.2,0.7,1.8,1.8,1.8,3.3c0,1.5-0.6,2.6-1.8,3.3c1.7,0.9,2.6,2.2,2.6,4
			c0,1.6-0.6,2.8-1.7,3.5C104.3,27,102.7,27.4,100.6,27.4z M95.3,17.4h4.4c0.4,0,0.8-0.1,1.1-0.4s0.4-0.7,0.4-1.1
			c0-0.4-0.1-0.8-0.4-1.1s-0.7-0.4-1.1-0.4h-4.4V17.4z M100.2,20.7h-4.9V24h4.9c0.5,0,1-0.2,1.3-0.5c0.3-0.3,0.4-0.7,0.4-1.2
			c0-0.5-0.1-0.9-0.4-1.2C101.2,20.8,100.8,20.7,100.2,20.7z"/>
		<path class="st0" d="M109.1,11h14.7c0.3,0,0.5,0.1,0.7,0.3c0.2,0.2,0.3,0.4,0.3,0.7v1.8c0,0.3-0.1,0.5-0.3,0.7
			c-0.2,0.2-0.4,0.3-0.7,0.3H119v11.8c0,0.3-0.1,0.5-0.3,0.7c-0.2,0.2-0.4,0.3-0.7,0.3h-3.3c-0.3,0-0.5-0.1-0.7-0.3
			c-0.2-0.2-0.3-0.4-0.3-0.7V14.6h-4.8c-0.3,0-0.5-0.1-0.7-0.3c-0.2-0.2-0.3-0.4-0.3-0.7V12c0-0.3,0.1-0.5,0.3-0.7
			C108.6,11.1,108.8,11,109.1,11z"/>
		<path class="st0" d="M128.2,12.9c1.5-1.4,3.8-2.1,6.7-2.1c2.9,0,5.1,0.7,6.7,2.1s2.3,3.5,2.3,6.3c0,2.8-0.8,4.9-2.3,6.3
			c-1.5,1.4-3.8,2.2-6.7,2.2c-2.9,0-5.1-0.7-6.7-2.2c-1.5-1.4-2.3-3.5-2.3-6.3C125.9,16.4,126.6,14.3,128.2,12.9z M132,23.1
			c0.6,0.8,1.6,1.2,2.9,1.2c1.3,0,2.3-0.4,2.9-1.2c0.6-0.8,0.9-2.1,0.9-3.9s-0.3-3.1-0.9-3.9c-0.6-0.8-1.6-1.2-2.9-1.2
			c-1.3,0-2.3,0.4-2.9,1.2c-0.6,0.8-0.9,2.1-0.9,3.9S131.3,22.3,132,23.1z"/>
	</g>
</g>
<g>
	<g>
		<path class="st1" d="M63.7,36.7h1v6.8l4.6-6.8h1.1v8.6h-1v-6.8l-4.6,6.8h-1.1V36.7z"/>
		<path class="st1" d="M72.2,39.1h1.1v2.6h2.9v-2.6h1.1v6.2h-1.1v-2.8h-2.9v2.8h-1.1V39.1z"/>
		<path class="st1" d="M78.2,39.1h5.1V40h-2v5.3h-1V40h-2V39.1z"/>
		<path class="st1" d="M88.4,43.3l1.1,0.1c-0.2,0.6-0.5,1.1-1,1.5s-1.1,0.5-1.8,0.5c-0.9,0-1.6-0.3-2.2-0.8s-0.8-1.3-0.8-2.4
			c0-1,0.3-1.9,0.8-2.4s1.2-0.9,2.1-0.9c0.8,0,1.5,0.3,2,0.8s0.8,1.4,0.8,2.4c0,0.1,0,0.2,0,0.3h-4.6c0,0.7,0.2,1.2,0.6,1.6
			s0.8,0.5,1.3,0.5c0.4,0,0.7-0.1,1-0.3S88.3,43.8,88.4,43.3z M85,41.6h3.5c0-0.5-0.2-0.9-0.4-1.2c-0.3-0.4-0.8-0.6-1.3-0.6
			c-0.5,0-0.9,0.2-1.2,0.5S85,41.1,85,41.6z"/>
		<path class="st1" d="M90.8,47.7v-8.6h1v0.8c0.2-0.3,0.5-0.6,0.8-0.7s0.6-0.2,1-0.2c0.5,0,1,0.1,1.4,0.4s0.7,0.7,0.9,1.2
			s0.3,1,0.3,1.6c0,0.6-0.1,1.2-0.3,1.7s-0.6,0.9-1,1.2s-0.9,0.4-1.4,0.4c-0.4,0-0.7-0.1-0.9-0.2s-0.5-0.3-0.7-0.6v3H90.8z
			 M91.8,42.3c0,0.8,0.2,1.4,0.5,1.8s0.7,0.6,1.2,0.6c0.5,0,0.9-0.2,1.2-0.6s0.5-1,0.5-1.8c0-0.8-0.2-1.4-0.5-1.8s-0.7-0.6-1.2-0.6
			c-0.4,0-0.8,0.2-1.2,0.6S91.8,41.5,91.8,42.3z"/>
		<path class="st1" d="M97.5,39.1h1.1v2.6h2.9v-2.6h1.1v6.2h-1.1v-2.8h-2.9v2.8h-1.1V39.1z"/>
		<path class="st1" d="M108.4,43.3l1.1,0.1c-0.2,0.6-0.5,1.1-1,1.5s-1.1,0.5-1.8,0.5c-0.9,0-1.6-0.3-2.2-0.8s-0.8-1.3-0.8-2.4
			c0-1,0.3-1.9,0.8-2.4s1.2-0.9,2.1-0.9c0.8,0,1.5,0.3,2,0.8s0.8,1.4,0.8,2.4c0,0.1,0,0.2,0,0.3h-4.6c0,0.7,0.2,1.2,0.6,1.6
			s0.8,0.5,1.3,0.5c0.4,0,0.7-0.1,1-0.3S108.2,43.8,108.4,43.3z M104.9,41.6h3.5c0-0.5-0.2-0.9-0.4-1.2c-0.3-0.4-0.8-0.6-1.3-0.6
			c-0.5,0-0.9,0.2-1.2,0.5S105,41.1,104.9,41.6z"/>
		<path class="st1" d="M109.9,39.1h5.1V40h-2v5.3h-1V40h-2V39.1z"/>
		<path class="st1" d="M115.5,42.8v-1.1h3.2v1.1H115.5z"/>
		<path class="st1" d="M119.9,39.1h1.6l1.6,5l1.8-5h1.5v6.2h-1.1v-5l-1.8,5h-0.9l-1.7-5.3v5.3h-1V39.1z"/>
		<path class="st1" d="M132.2,44.6c-0.4,0.3-0.8,0.6-1.1,0.7s-0.7,0.2-1.2,0.2c-0.7,0-1.2-0.2-1.6-0.5s-0.6-0.8-0.6-1.3
			c0-0.3,0.1-0.6,0.2-0.8s0.3-0.5,0.5-0.6s0.5-0.3,0.8-0.3c0.2-0.1,0.5-0.1,0.9-0.2c0.9-0.1,1.5-0.2,1.9-0.4c0-0.1,0-0.2,0-0.3
			c0-0.4-0.1-0.7-0.3-0.9c-0.3-0.2-0.7-0.4-1.2-0.4c-0.5,0-0.9,0.1-1.1,0.3s-0.4,0.5-0.5,0.9l-1-0.1c0.1-0.4,0.2-0.8,0.5-1.1
			s0.5-0.5,0.9-0.6s0.9-0.2,1.4-0.2c0.5,0,1,0.1,1.3,0.2s0.6,0.3,0.7,0.5s0.3,0.4,0.3,0.7c0,0.2,0.1,0.5,0.1,1v1.4
			c0,1,0,1.6,0.1,1.9s0.1,0.5,0.3,0.7h-1.1C132.3,45.1,132.3,44.9,132.2,44.6z M132.1,42.2c-0.4,0.2-1,0.3-1.7,0.4
			c-0.4,0.1-0.7,0.1-0.9,0.2s-0.3,0.2-0.4,0.3s-0.1,0.3-0.1,0.5c0,0.3,0.1,0.5,0.3,0.7s0.5,0.3,0.9,0.3c0.4,0,0.8-0.1,1.1-0.3
			s0.5-0.4,0.7-0.7c0.1-0.2,0.2-0.6,0.2-1.1V42.2z"/>
		<path class="st1" d="M134.8,39.1h3.6V40h-2.5v5.3h-1.1V39.1z"/>
		<path class="st1" d="M143,44.6c-0.4,0.3-0.8,0.6-1.1,0.7s-0.7,0.2-1.2,0.2c-0.7,0-1.2-0.2-1.6-0.5s-0.6-0.8-0.6-1.3
			c0-0.3,0.1-0.6,0.2-0.8s0.3-0.5,0.5-0.6s0.5-0.3,0.8-0.3c0.2-0.1,0.5-0.1,0.9-0.2c0.9-0.1,1.5-0.2,1.9-0.4c0-0.1,0-0.2,0-0.3
			c0-0.4-0.1-0.7-0.3-0.9c-0.3-0.2-0.7-0.4-1.2-0.4c-0.5,0-0.9,0.1-1.1,0.3s-0.4,0.5-0.5,0.9l-1-0.1c0.1-0.4,0.2-0.8,0.5-1.1
			s0.5-0.5,0.9-0.6s0.9-0.2,1.4-0.2c0.5,0,1,0.1,1.3,0.2s0.6,0.3,0.7,0.5s0.3,0.4,0.3,0.7c0,0.2,0.1,0.5,0.1,1v1.4
			c0,1,0,1.6,0.1,1.9s0.1,0.5,0.3,0.7h-1.1C143.1,45.1,143,44.9,143,44.6z M142.9,42.2c-0.4,0.2-1,0.3-1.7,0.4
			c-0.4,0.1-0.7,0.1-0.9,0.2s-0.3,0.2-0.4,0.3s-0.1,0.3-0.1,0.5c0,0.3,0.1,0.5,0.3,0.7s0.5,0.3,0.9,0.3c0.4,0,0.8-0.1,1.1-0.3
			s0.5-0.4,0.7-0.7c0.1-0.2,0.2-0.6,0.2-1.1V42.2z"/>
		<path class="st1" d="M146.9,42.5v-0.8c0.4,0,0.7,0,0.9-0.1s0.3-0.1,0.5-0.3s0.2-0.4,0.2-0.6c0-0.3-0.1-0.5-0.3-0.7
			s-0.4-0.3-0.7-0.3c-0.6,0-1,0.3-1.2,1l-1-0.2c0.3-1.2,1.1-1.8,2.3-1.8c0.7,0,1.2,0.2,1.6,0.5s0.6,0.8,0.6,1.3
			c0,0.5-0.2,0.9-0.7,1.2c0.3,0.2,0.5,0.4,0.7,0.6s0.2,0.6,0.2,0.9c0,0.6-0.2,1-0.6,1.4s-1,0.5-1.7,0.5c-1.4,0-2.2-0.6-2.5-1.9
			l1-0.2c0.1,0.4,0.3,0.7,0.5,0.9s0.6,0.3,0.9,0.3s0.7-0.1,0.9-0.3s0.4-0.5,0.4-0.8c0-0.2-0.1-0.5-0.2-0.6s-0.3-0.3-0.5-0.3
			s-0.5-0.1-0.9-0.1C147.1,42.5,147,42.5,146.9,42.5z"/>
		<path class="st1" d="M151,39.1h1.1v4.7l2.9-4.7h1.1v6.2h-1.1v-4.7l-2.9,4.7H151V39.1z"/>
		<path class="st1" d="M157.7,39.1h1.1v2.6h2.9v-2.6h1.1v6.2h-1.1v-2.8h-2.9v2.8h-1.1V39.1z"/>
		<path class="st1" d="M171.7,44.6c-0.4,0.3-0.8,0.6-1.1,0.7s-0.7,0.2-1.2,0.2c-0.7,0-1.2-0.2-1.6-0.5s-0.6-0.8-0.6-1.3
			c0-0.3,0.1-0.6,0.2-0.8s0.3-0.5,0.5-0.6s0.5-0.3,0.8-0.3c0.2-0.1,0.5-0.1,0.9-0.2c0.9-0.1,1.5-0.2,1.9-0.4c0-0.1,0-0.2,0-0.3
			c0-0.4-0.1-0.7-0.3-0.9c-0.3-0.2-0.7-0.4-1.2-0.4c-0.5,0-0.9,0.1-1.1,0.3s-0.4,0.5-0.5,0.9l-1-0.1c0.1-0.4,0.2-0.8,0.5-1.1
			s0.5-0.5,0.9-0.6s0.9-0.2,1.4-0.2c0.5,0,1,0.1,1.3,0.2s0.6,0.3,0.7,0.5s0.3,0.4,0.3,0.7c0,0.2,0.1,0.5,0.1,1v1.4
			c0,1,0,1.6,0.1,1.9s0.1,0.5,0.3,0.7h-1.1C171.8,45.1,171.8,44.9,171.7,44.6z M171.6,42.2c-0.4,0.2-1,0.3-1.7,0.4
			c-0.4,0.1-0.7,0.1-0.9,0.2s-0.3,0.2-0.4,0.3s-0.1,0.3-0.1,0.5c0,0.3,0.1,0.5,0.3,0.7s0.5,0.3,0.9,0.3c0.4,0,0.8-0.1,1.1-0.3
			s0.5-0.4,0.7-0.7c0.1-0.2,0.2-0.6,0.2-1.1V42.2z"/>
		<path class="st1" d="M174.3,39.1h2.4c0.6,0,1,0,1.3,0.1s0.5,0.3,0.8,0.5s0.3,0.6,0.3,1c0,0.3-0.1,0.6-0.2,0.8s-0.3,0.4-0.6,0.6
			c0.3,0.1,0.5,0.3,0.7,0.5s0.3,0.6,0.3,1c0,0.6-0.3,1-0.6,1.3s-0.9,0.4-1.7,0.4h-2.8V39.1z M175.4,41.7h1.1c0.4,0,0.8,0,0.9-0.1
			s0.3-0.1,0.5-0.3s0.2-0.3,0.2-0.5c0-0.3-0.1-0.6-0.3-0.7s-0.6-0.2-1.2-0.2h-1.2V41.7z M175.4,44.5h1.4c0.6,0,1-0.1,1.2-0.2
			s0.3-0.4,0.4-0.7c0-0.2-0.1-0.4-0.2-0.6s-0.3-0.3-0.5-0.3s-0.5-0.1-1-0.1h-1.3V44.5z"/>
		<path class="st1" d="M179.9,39.1h5.1V40h-2v5.3h-1V40h-2V39.1z"/>
		<path class="st1" d="M185.4,42.2c0-1.2,0.3-2,1-2.6c0.5-0.5,1.2-0.7,2-0.7c0.9,0,1.6,0.3,2.1,0.8s0.8,1.3,0.8,2.3
			c0,0.8-0.1,1.4-0.4,1.9s-0.6,0.8-1,1.1s-1,0.4-1.5,0.4c-0.9,0-1.6-0.3-2.1-0.8S185.4,43.3,185.4,42.2z M186.5,42.2
			c0,0.8,0.2,1.4,0.5,1.8s0.8,0.6,1.3,0.6c0.5,0,1-0.2,1.3-0.6s0.5-1,0.5-1.8c0-0.8-0.2-1.4-0.5-1.8s-0.8-0.6-1.3-0.6
			c-0.5,0-1,0.2-1.3,0.6S186.5,41.4,186.5,42.2z"/>
		<path class="st1" d="M193.7,42.5v-0.8c0.4,0,0.7,0,0.9-0.1s0.3-0.1,0.5-0.3s0.2-0.4,0.2-0.6c0-0.3-0.1-0.5-0.3-0.7
			s-0.4-0.3-0.7-0.3c-0.6,0-1,0.3-1.2,1l-1-0.2c0.3-1.2,1.1-1.8,2.3-1.8c0.7,0,1.2,0.2,1.6,0.5s0.6,0.8,0.6,1.3
			c0,0.5-0.2,0.9-0.7,1.2c0.3,0.2,0.5,0.4,0.7,0.6s0.2,0.6,0.2,0.9c0,0.6-0.2,1-0.6,1.4s-1,0.5-1.7,0.5c-1.4,0-2.2-0.6-2.5-1.9
			l1-0.2c0.1,0.4,0.3,0.7,0.5,0.9s0.6,0.3,0.9,0.3s0.7-0.1,0.9-0.3s0.4-0.5,0.4-0.8c0-0.2-0.1-0.5-0.2-0.6s-0.3-0.3-0.5-0.3
			s-0.5-0.1-0.9-0.1C193.9,42.5,193.8,42.5,193.7,42.5z"/>
		<path class="st1" d="M201.9,44.6c-0.4,0.3-0.8,0.6-1.1,0.7s-0.7,0.2-1.2,0.2c-0.7,0-1.2-0.2-1.6-0.5s-0.6-0.8-0.6-1.3
			c0-0.3,0.1-0.6,0.2-0.8s0.3-0.5,0.5-0.6s0.5-0.3,0.8-0.3c0.2-0.1,0.5-0.1,0.9-0.2c0.9-0.1,1.5-0.2,1.9-0.4c0-0.1,0-0.2,0-0.3
			c0-0.4-0.1-0.7-0.3-0.9c-0.3-0.2-0.7-0.4-1.2-0.4c-0.5,0-0.9,0.1-1.1,0.3s-0.4,0.5-0.5,0.9l-1-0.1c0.1-0.4,0.2-0.8,0.5-1.1
			s0.5-0.5,0.9-0.6s0.9-0.2,1.4-0.2c0.5,0,1,0.1,1.3,0.2s0.6,0.3,0.7,0.5s0.3,0.4,0.3,0.7c0,0.2,0.1,0.5,0.1,1v1.4
			c0,1,0,1.6,0.1,1.9s0.1,0.5,0.3,0.7h-1.1C202,45.1,201.9,44.9,201.9,44.6z M201.8,42.2c-0.4,0.2-1,0.3-1.7,0.4
			c-0.4,0.1-0.7,0.1-0.9,0.2s-0.3,0.2-0.4,0.3s-0.1,0.3-0.1,0.5c0,0.3,0.1,0.5,0.3,0.7s0.5,0.3,0.9,0.3c0.4,0,0.8-0.1,1.1-0.3
			s0.5-0.4,0.7-0.7c0.1-0.2,0.2-0.6,0.2-1.1V42.2z"/>
		<path class="st1" d="M204.5,39.1h4.9v6.2h-1.1V40h-2.8v5.3h-1.1V39.1z"/>
		<path class="st1" d="M210.6,39.1h1.1v1.2c0,0.5,0,0.9,0.1,1.1s0.2,0.4,0.4,0.6s0.5,0.3,0.9,0.3c0.4,0,0.9-0.1,1.5-0.3v-2.8h1.1
			v6.2h-1.1v-2.5c-0.6,0.2-1.3,0.3-1.8,0.3c-0.5,0-0.9-0.1-1.3-0.4s-0.6-0.5-0.7-0.9s-0.2-0.7-0.2-1.1V39.1z"/>
		<path class="st1" d="M221.3,44.6c-0.4,0.3-0.8,0.6-1.1,0.7s-0.7,0.2-1.2,0.2c-0.7,0-1.2-0.2-1.6-0.5s-0.6-0.8-0.6-1.3
			c0-0.3,0.1-0.6,0.2-0.8s0.3-0.5,0.5-0.6s0.5-0.3,0.8-0.3c0.2-0.1,0.5-0.1,0.9-0.2c0.9-0.1,1.5-0.2,1.9-0.4c0-0.1,0-0.2,0-0.3
			c0-0.4-0.1-0.7-0.3-0.9c-0.3-0.2-0.7-0.4-1.2-0.4c-0.5,0-0.9,0.1-1.1,0.3s-0.4,0.5-0.5,0.9l-1-0.1c0.1-0.4,0.2-0.8,0.5-1.1
			s0.5-0.5,0.9-0.6s0.9-0.2,1.4-0.2c0.5,0,1,0.1,1.3,0.2s0.6,0.3,0.7,0.5s0.3,0.4,0.3,0.7c0,0.2,0.1,0.5,0.1,1v1.4
			c0,1,0,1.6,0.1,1.9s0.1,0.5,0.3,0.7h-1.1C221.4,45.1,221.4,44.9,221.3,44.6z M221.2,42.2c-0.4,0.2-1,0.3-1.7,0.4
			c-0.4,0.1-0.7,0.1-0.9,0.2s-0.3,0.2-0.4,0.3s-0.1,0.3-0.1,0.5c0,0.3,0.1,0.5,0.3,0.7s0.5,0.3,0.9,0.3c0.4,0,0.8-0.1,1.1-0.3
			s0.5-0.4,0.7-0.7c0.1-0.2,0.2-0.6,0.2-1.1V42.2z"/>
		<path class="st1" d="M228,43.1l1,0.1c-0.1,0.7-0.4,1.3-0.9,1.7s-1,0.6-1.7,0.6c-0.9,0-1.5-0.3-2.1-0.8s-0.8-1.4-0.8-2.4
			c0-0.7,0.1-1.3,0.3-1.8s0.6-0.9,1-1.1s1-0.4,1.5-0.4c0.7,0,1.2,0.2,1.7,0.5s0.7,0.8,0.8,1.5l-1,0.2c-0.1-0.4-0.3-0.7-0.5-0.9
			s-0.5-0.3-0.9-0.3c-0.5,0-1,0.2-1.3,0.6s-0.5,1-0.5,1.8c0,0.8,0.2,1.4,0.5,1.8s0.7,0.6,1.3,0.6c0.4,0,0.8-0.1,1-0.4
			S227.9,43.6,228,43.1z"/>
		<path class="st1" d="M229.4,39.1h5.1V40h-2v5.3h-1V40h-2V39.1z"/>
		<path class="st1" d="M239.6,43.3l1.1,0.1c-0.2,0.6-0.5,1.1-1,1.5s-1.1,0.5-1.8,0.5c-0.9,0-1.6-0.3-2.2-0.8s-0.8-1.3-0.8-2.4
			c0-1,0.3-1.9,0.8-2.4s1.2-0.9,2.1-0.9c0.8,0,1.5,0.3,2,0.8s0.8,1.4,0.8,2.4c0,0.1,0,0.2,0,0.3H236c0,0.7,0.2,1.2,0.6,1.6
			s0.8,0.5,1.3,0.5c0.4,0,0.7-0.1,1-0.3S239.4,43.8,239.6,43.3z M236.1,41.6h3.5c0-0.5-0.2-0.9-0.4-1.2c-0.3-0.4-0.8-0.6-1.3-0.6
			c-0.5,0-0.9,0.2-1.2,0.5S236.1,41.1,236.1,41.6z"/>
		<path class="st1" d="M242,39.1h1.1v4.7l2.9-4.7h1.1v6.2H246v-4.7l-2.9,4.7H242V39.1z M245.6,36.8h0.7c-0.1,0.5-0.2,0.9-0.5,1.1
			s-0.7,0.4-1.2,0.4c-0.5,0-0.9-0.1-1.2-0.4s-0.5-0.6-0.5-1.1h0.7c0.1,0.3,0.2,0.5,0.3,0.6s0.4,0.2,0.7,0.2c0.3,0,0.6-0.1,0.7-0.2
			S245.6,37,245.6,36.8z"/>
	</g>
</g>
<g>
	<g>
		<path class="st2" d="M149.1,5.8h11.4c6,0,9,2.8,9,8.3s-3,8.3-9,8.3h-7.1v3.4c0,0.4-0.1,0.7-0.4,1c-0.3,0.3-0.6,0.4-1,0.4h-2.8
			c-0.4,0-0.7-0.1-1-0.4c-0.3-0.3-0.4-0.6-0.4-1V7.2c0-0.4,0.1-0.7,0.4-1C148.4,5.9,148.7,5.8,149.1,5.8z M158.8,10h-5.4v8.2h5.4
			c1.7,0,2.9-0.3,3.8-0.8s1.3-1.6,1.3-3.2s-0.4-2.7-1.3-3.2S160.4,10,158.8,10z"/>
		<path class="st2" d="M187.5,20.5h-11.2c0.1,1.2,0.5,2.1,1.1,2.7c0.6,0.6,1.5,0.8,2.8,0.8c1.4,0,2.4-0.3,2.9-1
			c0.4-0.5,1-0.8,1.7-0.8h2.2c0.3,0,0.5,0.1,0.7,0.3c0.2,0.2,0.3,0.4,0.3,0.7c0,2.8-2.7,4.3-8.1,4.3c-2.7,0-4.9-0.7-6.4-2.2
			S171,21.7,171,19c0-2.7,0.8-4.8,2.3-6.3c1.5-1.5,3.7-2.2,6.4-2.2c2.7,0,4.9,0.7,6.4,2.1s2.3,3.5,2.3,6.1v0.9
			c0,0.3-0.1,0.5-0.3,0.7S187.7,20.5,187.5,20.5z M179.7,13.9c-2.2,0-3.4,1.2-3.5,3.5h6.9C183,15,181.9,13.9,179.7,13.9z"/>
		<path class="st2" d="M199.4,14.1c-1.4,0-2.4,0.4-3,1.1c-0.6,0.8-0.9,2-0.9,3.7c0,1.7,0.3,2.9,0.9,3.7s1.7,1.1,3.1,1.1
			c1.5,0,2.6-0.5,3.2-1.4c0.5-0.7,1-1.1,1.7-1.1h2.2c0.3,0,0.5,0.1,0.7,0.3c0.2,0.2,0.3,0.4,0.3,0.7c0,1.7-0.7,3-2.2,3.9
			c-1.5,0.9-3.5,1.3-6.2,1.3c-2.9,0-5.1-0.7-6.7-2.2c-1.5-1.4-2.3-3.5-2.3-6.3c0-2.8,0.8-4.9,2.3-6.3c1.5-1.4,3.7-2.2,6.5-2.2
			c2.7,0,4.7,0.4,6.2,1.3c1.5,0.9,2.2,2.2,2.2,3.9c0,0.3-0.1,0.5-0.3,0.7s-0.4,0.3-0.7,0.3h-2.2c-0.7,0-1.2-0.4-1.7-1.1
			C202.1,14.6,201,14.1,199.4,14.1z"/>
		<path class="st2" d="M215.2,28.9c1.4,0,2.4-1,2.9-3.1c-1.7,0-3.1-0.5-4.2-1.5c-1.1-1-2.1-2.8-2.9-5.4l-2.2-7.2
			c-0.1-0.2,0-0.4,0.1-0.6c0.2-0.2,0.4-0.3,0.6-0.3h3.1c0.3,0,0.6,0.1,0.8,0.3s0.4,0.4,0.5,0.7l2,6.3c0.5,1.5,1,2.6,1.5,3.2
			c0.5,0.6,1.1,0.9,1.8,0.9l3-10.4c0.1-0.3,0.2-0.5,0.5-0.7c0.2-0.2,0.5-0.3,0.8-0.3h3.1c0.2,0,0.4,0.1,0.6,0.3
			c0.1,0.2,0.2,0.4,0.1,0.6l-3.9,13.9c-0.7,2.5-1.6,4.2-2.6,5.3c-1,1.1-2.4,1.6-4.1,1.6c-1.5,0-2.8-0.1-3.9-0.3
			c-0.3,0-0.5-0.1-0.7-0.3c-0.2-0.2-0.3-0.4-0.3-0.6v-1.6c0-0.3,0.1-0.5,0.3-0.7s0.4-0.3,0.7-0.3h0.5c0.2,0,0.5,0,1,0.1
			S215,28.9,215.2,28.9z"/>
		<path class="st2" d="M239.3,10.5c2.2,0,4.1,0.7,5.4,2.2c1.4,1.5,2.1,3.5,2.1,6.3c0,2.7-0.7,4.8-2.2,6.3c-1.4,1.5-3.4,2.2-5.8,2.2
			c-1.3,0-2.7-0.3-4.3-0.8v4.6c0,0.3-0.1,0.5-0.3,0.7c-0.2,0.2-0.4,0.3-0.7,0.3h-3.3c-0.3,0-0.5-0.1-0.7-0.3
			c-0.2-0.2-0.3-0.4-0.3-0.7V11.7c0-0.3,0.1-0.5,0.3-0.7s0.4-0.3,0.7-0.3h2.9c0.3,0,0.5,0.1,0.7,0.3s0.3,0.4,0.3,0.7v0.5
			C235.6,11.1,237.4,10.5,239.3,10.5z M238.1,14.1c-0.9,0-2.1,0.4-3.5,1.3v7.8c1.3,0.4,2.4,0.6,3.2,0.6c1.4,0,2.3-0.4,2.9-1.2
			c0.6-0.8,0.9-2,0.9-3.7c0-1.7-0.3-2.9-0.8-3.7C240.2,14.5,239.3,14.1,238.1,14.1z"/>
		<path class="st2" d="M257.9,14.1c-1.4,0-2.4,0.4-3,1.1c-0.6,0.8-0.9,2-0.9,3.7c0,1.7,0.3,2.9,0.9,3.7s1.7,1.1,3.1,1.1
			c1.5,0,2.6-0.5,3.2-1.4c0.5-0.7,1-1.1,1.7-1.1h2.2c0.3,0,0.5,0.1,0.7,0.3c0.2,0.2,0.3,0.4,0.3,0.7c0,1.7-0.7,3-2.2,3.9
			c-1.5,0.9-3.5,1.3-6.2,1.3c-2.9,0-5.1-0.7-6.7-2.2c-1.5-1.4-2.3-3.5-2.3-6.3c0-2.8,0.8-4.9,2.3-6.3c1.5-1.4,3.7-2.2,6.5-2.2
			c2.7,0,4.7,0.4,6.2,1.3c1.5,0.9,2.2,2.2,2.2,3.9c0,0.3-0.1,0.5-0.3,0.7s-0.4,0.3-0.7,0.3h-2.2c-0.7,0-1.2-0.4-1.7-1.1
			C260.5,14.6,259.4,14.1,257.9,14.1z"/>
	</g>
</g>
</svg>
