<svg xmlns="http://www.w3.org/2000/svg" xmlns:xlink="http://www.w3.org/1999/xlink" width="18" height="18" viewBox="0 0 18 18"><defs><path id="768ba" d="M663.625 23.795a15.06 15.06 0 0 0 6.59 6.585l2.2-2.205c.275-.275.67-.355 1.015-.245 1.12.37 2.325.57 3.57.57.555 0 1 .445 1 1V33c0 .555-.445 1-1 1-9.39 0-17-7.61-17-17a1 1 0 0 1 1-1h3.5c.555 0 1 .445 1 1 0 1.245.2 2.45.57 3.57.11.345.03.74-.245 1.015z"/></defs><g><g transform="translate(-660 -16)"><use fill="#e02e2e" xlink:href="#768ba"/></g></g></svg>