<?xml version="1.0" encoding="UTF-8"?>
<svg width="18px" height="18px" viewBox="0 0 18 18" version="1.1" xmlns="http://www.w3.org/2000/svg" xmlns:xlink="http://www.w3.org/1999/xlink">
    <!-- Generator: Sketch 50.2 (55047) - http://www.bohemiancoding.com/sketch -->
    <title>Shape</title>
    <desc>Created with Sketch.</desc>
    <defs></defs>
    <g id="Welcome" stroke="none" stroke-width="1" fill="none" fill-rule="evenodd">
        <g id="Desktop-HD" transform="translate(-729.000000, -34.000000)" fill="#FFFFFF" fill-rule="nonzero">
            <g id="phones" transform="translate(717.000000, 22.000000)">
                <path d="M15.625,19.795 C17.065,22.625 19.38,24.94 22.215,26.38 L24.415,24.175 C24.69,23.9 25.085,23.82 25.43,23.93 C26.55,24.3 27.755,24.5 29,24.5 C29.555,24.5 30,24.945 30,25.5 L30,29 C30,29.555 29.555,30 29,30 C19.61,30 12,22.39 12,13 C12,12.445 12.45,12 13,12 L16.5,12 C17.055,12 17.5,12.445 17.5,13 C17.5,14.245 17.7,15.45 18.07,16.57 C18.18,16.915 18.1,17.31 17.825,17.585 L15.625,19.795 Z" id="Shape"></path>
            </g>
        </g>
    </g>
</svg>