<?xml version="1.0" encoding="UTF-8"?>
<svg width="12px" height="12px" viewBox="0 0 12 12" version="1.1" xmlns="http://www.w3.org/2000/svg" xmlns:xlink="http://www.w3.org/1999/xlink">
    <!-- Generator: Sketch 50.2 (55047) - http://www.bohemiancoding.com/sketch -->
    <title>viber</title>
    <desc>Created with Sketch.</desc>
    <defs></defs>
    <g id="Welcome" stroke="none" stroke-width="1" fill="none" fill-rule="evenodd">
        <g id="Desktop-HD" transform="translate(-1013.000000, -50.000000)" fill="#9069AE" fill-rule="nonzero">
            <g id="phones" transform="translate(717.000000, 22.000000)">
                <g id="cont_numbers" transform="translate(19.000000, 1.000000)">
                    <g id="viber" transform="translate(277.000000, 27.000000)">
                        <g id="Shape">
                            <path d="M6.08516732,0.0822757282 C6.1882179,0 6.25003891,0 6.5797821,0 C6.7446537,0 6.99196109,0.0205747573 7.1362179,0.0411495146 C7.81631907,0.123425243 8.24911284,0.226275728 8.84677821,0.514229126 C9.44444358,0.802205825 9.81541634,1.06958447 10.3306459,1.54268738 C10.8046459,1.99521553 11.0519767,2.3448932 11.3404903,2.90024854 C11.7320545,3.66130485 11.9381556,4.54578641 11.9793852,5.53309515 C12,5.86219806 11.9793852,5.94447379 11.8969494,6.04732427 C11.7526926,6.23245049 11.4229494,6.21187573 11.299284,5.9856233 C11.2580545,5.92392233 11.2580545,5.86219806 11.237463,5.59481942 C11.2168482,5.18344078 11.1962335,4.91603883 11.1344125,4.58693592 C10.9077198,3.33222524 10.2894397,2.32434175 9.30021012,1.60441165 C8.47585214,1.0079068 7.7545214,0.781654369 6.64162646,0.699378641 C6.25006226,0.699378641 6.1882179,0.699378641 6.1057821,0.617102913 C5.94091051,0.514229126 5.94091051,0.226252427 6.08516732,0.0822757282"></path>
                            <path d="M8.12547082,2.65342136 C7.73390661,2.42716893 7.13624125,2.24204272 6.60039689,2.2008932 C6.41491051,2.18031845 6.29126848,2.13919223 6.22942412,2.0569165 C6.10575875,1.95406602 6.10575875,1.76893981 6.18819455,1.64553786 C6.29124514,1.48098641 6.45611673,1.46041165 6.93011673,1.54268738 C8.12544747,1.70723883 9.05285603,2.26261748 9.67113619,3.14707573 C10.0214942,3.6407301 10.227572,4.23723495 10.2894163,4.85431456 C10.3100311,5.08056699 10.3100311,5.49196893 10.2894163,5.57424466 C10.2688016,5.63594563 10.1863658,5.73879612 10.10393,5.75937087 C10.0214942,5.80052039 9.85662257,5.80052039 9.77418677,5.73879612 C9.62992996,5.65652039 9.5680856,5.5536699 9.5680856,5.22456699 C9.5680856,4.73091262 9.44442023,4.19610874 9.19711284,3.7847301 C8.94982879,3.31162718 8.57887938,2.9208233 8.12547082,2.65342136"></path>
                            <path d="M8.64070039,5.36854369 C8.51703502,5.47139417 8.3109572,5.47139417 8.18729183,5.36854369 C8.08424125,5.30684272 8.06362646,5.22456699 8.04303502,5.01886602 C8.02242023,4.75146408 7.96059922,4.56633786 7.89877821,4.40178641 C7.73390661,4.03153398 7.42477821,3.84643107 6.90954864,3.7847068 C6.66224125,3.76413204 6.60042023,3.72300583 6.51798444,3.6407301 C6.37372763,3.47617864 6.43554864,3.2087767 6.62103502,3.10592621 C6.70347082,3.0647767 6.7240856,3.0647767 6.8889572,3.08535146 C6.99200778,3.08535146 7.13626459,3.10592621 7.21870039,3.12650097 C7.61026459,3.2087767 7.89880156,3.3527534 8.16672374,3.57902913 C8.49646693,3.88755728 8.68195331,4.23723495 8.74377432,4.77203883 C8.7849572,5.1217165 8.76434241,5.2656932 8.64070039,5.36854369"></path>
                            <path d="M11.9587704,9.74977864 C11.9587704,9.56465243 11.8969494,9.42067573 11.773284,9.27669903 C11.6496187,9.13272233 10.8046459,8.45394175 10.3924669,8.18653981 C10.0833385,7.98083883 9.60931518,7.69288544 9.40323735,7.59003495 C9.11470039,7.44605825 8.82618677,7.4254835 8.55826459,7.50775922 C8.49644358,7.52833398 8.45521401,7.54890874 8.41400778,7.56946019 C8.29034241,7.63116117 8.18731518,7.75458641 7.94000778,8.04253981 C7.77513619,8.24824078 7.63087938,8.43334369 7.61026459,8.43334369 C7.61026459,8.43334369 7.58964981,8.43334369 7.58964981,8.45391845 C7.56903502,8.4744932 7.50721401,8.49506796 7.46598444,8.51561942 C7.19806226,8.63904466 6.84770428,8.55676893 6.2706537,8.28936699 C5.81724514,8.06311456 5.42568093,7.79571262 4.97227237,7.38433398 C4.58070817,7.03465631 4.18912062,6.60270291 3.9830428,6.25302524 C3.69450584,5.80049709 3.48842802,5.22456699 3.48842802,4.89546408 C3.48842802,4.75148738 3.55024903,4.56636117 3.61209339,4.46351068 L3.63270817,4.44293592 C3.63270817,4.44293592 3.63270817,4.44293592 3.65332296,4.42236117 C3.67393774,4.40178641 3.69455253,4.38121165 3.71514397,4.38121165 C3.79757977,4.31951068 3.90063035,4.21666019 4.00368093,4.13438447 C4.47768093,3.76413204 4.58073152,3.6407301 4.64257588,3.43502913 C4.70439689,3.22932816 4.64257588,2.96194951 4.43647471,2.59169709 C4.06545525,1.91293981 3.03501946,0.617079612 2.66404669,0.370252427 C2.60222568,0.329102913 2.4991751,0.287976699 2.43735409,0.246827184 C2.27248249,0.20567767 2.04578988,0.185126214 1.92212451,0.20567767 C1.73663813,0.246827184 1.50994553,0.390803883 0.994715953,0.76103301 C0.685587549,0.987285437 0.273385214,1.37811262 0.170357977,1.54266408 C-0.0563346304,1.93346796 -0.0357431907,2.24201942 0.232178988,3.00307573 C0.479486381,3.68185631 0.809229572,4.36063689 1.18020233,5.01884272 L1.20081712,5.03941748 C1.28325292,5.16284272 1.36568872,5.30681942 1.44812451,5.43022136 C1.44812451,5.45079612 1.4687393,5.45079612 1.4687393,5.47137087 C1.5511751,5.59479612 1.63361089,5.73877282 1.71604669,5.86217476 C1.75727626,5.90332427 1.7778677,5.96502524 1.81909728,6.00615146 C1.88091829,6.10900194 1.94276265,6.19127767 2.02519844,6.29412816 C2.12824903,6.43810485 2.23129961,6.58210485 2.35494163,6.72608155 C3.52965759,8.24819417 4.88985992,9.4823534 6.49736965,10.4902369 C6.51798444,10.5108117 6.53859922,10.5108117 6.55919066,10.5313864 C6.80649805,10.6753631 7.05380545,10.8193631 7.30111284,10.9633398 C7.34234241,10.9839146 7.36293385,11.0044893 7.40416342,11.0250408 C7.65147082,11.1690175 7.919393,11.2924427 8.18731518,11.4158447 C8.20792996,11.4364194 8.24913619,11.4364194 8.26975097,11.4569942 C8.53767315,11.5804194 8.82618677,11.7038214 9.11472374,11.8272466 C9.46508171,11.9712233 9.58872374,11.9917981 9.85664591,11.9712233 C9.98031128,11.9712233 10.1039533,11.9506485 10.2070039,11.9095223 C10.3718755,11.8683728 10.5161323,11.7860971 10.7016187,11.6626951 C10.7428482,11.6421204 10.7634397,11.6215456 10.8046693,11.6009942 C10.8458988,11.5804194 10.8871051,11.5392932 10.9283346,11.4981437 C11.1550272,11.3130175 11.4023346,11.0250641 11.6084358,10.7576621 C11.7526926,10.5725359 11.8557432,10.3874097 11.9175642,10.243433 C11.9381556,10.037732 11.9587704,9.89375534 11.9587704,9.74977864"></path>
                        </g>
                    </g>
                </g>
            </g>
        </g>
    </g>
</svg>